<svg viewBox="0 0 449 168" xmlns="http://www.w3.org/2000/svg"><path d="M86.203-.018C77.646.134 69.82 2.985 62.756 8.508c-8.047 6.246-12.945 14.294-14.695 24.14-.148.849-.3 1.649-.398 2.497a40.138 40.138 0 00-.2 2.45c-.351 4.596.098 8.995 1.297 13.194 1.352 4.9 3.7 9.496 7.098 13.844 3.398 4.348 7.297 7.75 11.746 10.297 3.746 2.149 7.895 3.598 12.445 4.399.8.148 1.598.25 2.45.398l1.347.152c1.101-4.449 2.8-8.597 5.148-12.348-1.55.051-3.148 0-4.746-.148-.101-.051-.152-.05-.203-.05-1.848-.25-3.648-.6-5.297-1.15-5.148-1.648-9.496-4.7-13.043-9.245-3.55-4.547-5.45-9.497-5.8-14.895a27.84 27.84 0 01.202-5.348v-.2c.95-7.448 4.399-13.496 10.344-18.144 6-4.65 12.746-6.547 20.293-5.598 7.547.902 13.645 4.348 18.293 10.348 4.65 5.996 6.547 12.742 5.649 20.293-.25 1.699-.551 3.297-1 4.848a41.31 41.31 0 0113.195-2c.047-.45.148-.899.2-1.352 1.347-10.946-1.4-20.788-8.2-29.488C112.084 6.707 103.189 1.66 92.244.308a43.125 43.125 0 00-6.041-.326zm1.467 27.56c-2.931-.11-5.558.775-7.92 2.658-2.75 2.098-4.348 4.898-4.746 8.343-.453 3.398.449 6.45 2.598 9.2 2.097 2.699 4.847 4.297 8.296 4.746 3.399.352 6.446-.5 9.196-2.598 2.75-2.149 4.297-4.95 4.75-8.297.398-3.449-.453-6.547-2.551-9.246-2.149-2.75-4.95-4.3-8.348-4.7a13.88 13.88 0 00-1.275-.107zm175.01 4.005l-10.793 58.477c-.453 1.95-.801 4-1.051 6.149-.25 2.097-.398 4.047-.398 5.847 0 5.797 1.097 10.546 3.347 14.242 2.25 3.7 6.047 5.899 11.395 6.598l6.496-13.293a18.963 18.963 0 01-2.797-1.648c-.852-.551-1.55-1.3-2.101-2.149-.597-.85-1.047-1.851-1.297-3.05-.25-1.2-.402-2.7-.402-4.45 0-.847.05-1.797.152-2.797.148-1.05.3-2.101.45-3.199l11.144-60.727H262.68zM38.84 36.915c-8.495.185-16.264 3.018-23.305 8.527C6.785 52.239 1.789 61.138.44 72.082c-1.352 10.946 1.347 20.743 8.195 29.489 6.246 8.047 14.293 12.945 24.141 14.69.8.153 1.6.251 2.451.403.848.098 1.649.2 2.5.25 4.598.301 8.995-.152 13.19-1.3 4.847-1.399 9.497-3.798 13.85-7.149 4.296-3.399 7.693-7.296 10.243-11.695 2.149-3.746 3.598-7.895 4.446-12.441-4.348-.75-8.344-2.05-12.043-3.852-.25 1.75-.602 3.45-1.102 5.098-1.649 5.149-4.7 9.496-9.246 13.047-4.547 3.547-9.495 5.496-14.893 5.848-1.75.097-3.547.05-5.399-.2-.046 0-.097 0-.148-.05-7.445-.95-13.497-4.399-18.145-10.348-4.695-5.996-6.594-12.742-5.644-20.242h-.002c.949-7.547 4.398-13.691 10.395-18.34 5.949-4.648 12.644-6.547 20.094-5.598a44.33 44.33 0 01-.801-12.695 42.192 42.192 0 00-3.684-.082zm401.12 3.23l-15.445 6.047-2.5 14.043h-9.395l-2.5 13.645h9.246l-3.148 17.293c-.149.953-.398 2.351-.648 4.148-.25 1.801-.403 3.4-.403 4.75.051 6.246 1.551 11.394 4.5 15.445 2.95 4.144 7.747 6.594 14.445 7.344l6.446-13.293c-3.45-.449-6.047-1.8-7.895-4.098-1.851-2.352-2.75-5.3-2.75-8.898 0-.7.102-1.7.25-3.047.149-1.351.301-2.45.45-3.3l3-16.345h12.991l2.5-13.645H436.21l3.75-20.09zm-313.54 11.01a39.352 39.352 0 00-9.781 1.385c-4.9 1.348-9.496 3.75-13.848 7.148-4.348 3.347-7.747 7.247-10.242 11.695-2.153 3.746-3.602 7.895-4.45 12.445 4.348.746 8.348 1.996 12.043 3.848.25-1.8.602-3.5 1.102-5.098 1.649-5.148 4.7-9.496 9.246-13.047 4.547-3.547 9.495-5.496 14.945-5.847a27.817 27.817 0 015.348.199h.148c7.445.953 13.497 4.45 18.145 10.398 4.696 5.945 6.594 12.695 5.645 20.242-.95 7.546-4.4 13.645-10.344 18.34-5.95 4.649-12.695 6.5-20.145 5.597.852 4.051 1.101 8.298.8 12.695 9.946.653 18.941-2.199 26.988-8.445 8.7-6.797 13.747-15.695 15.094-26.64 1.352-10.946-1.398-20.79-8.195-29.489-6.297-8.047-14.344-12.945-24.14-14.69-.848-.154-1.65-.301-2.45-.403-.848-.097-1.648-.2-2.5-.25a42.194 42.194 0 00-3.41-.084zm72.783 5.682l-13.393 5.75c1.148 1.75 2.044 3.598 2.595 5.496.5 1.898.75 3.699.75 5.347 0 .852-.05 1.899-.199 3.051-.102 1.149-.248 2.047-.4 2.7l-7.947 42.331h14.396l8.443-45.684a23.338 23.338 0 016.6-3.496c2.398-.851 4.5-1.3 6.25-1.3 1.898 0 3.495.55 4.796 1.648 1.25 1.05 1.846 2.601 1.846 4.75 0 .598-.096 1.5-.295 2.75-.204 1.148-.352 2.2-.5 3.098l-3.601 16.89c-.25 1.302-.5 2.652-.75 4.051-.246 1.45-.35 2.7-.35 3.747 0 4.05 1.1 7.449 3.35 10.148 2.148 2.699 6 4.297 11.547 4.746l6.347-12.844c-2.149-.348-3.701-1.149-4.65-2.399-1-1.199-1.5-2.898-1.5-5.047 0-.5.052-1.1.15-1.75.05-.652.152-1.199.203-1.601l3.647-17.191c.297-1.45.547-2.899.746-4.348.203-1.398.303-2.8.303-4.148 0-4.95-1.45-8.946-4.35-11.895-2.949-2.95-7.047-4.45-12.293-4.45-3.05 0-5.949.5-8.797 1.5-2.8.95-6.197 2.547-10.146 4.899-.148-.95-.5-2.103-1-3.399a23.189 23.189 0 00-1.799-3.351zm100.66 0l-13.393 5.75c1.148 1.75 2.045 3.598 2.595 5.496.5 1.898.75 3.699.75 5.347 0 .852-.05 1.899-.199 3.051-.1 1.149-.248 2.047-.4 2.7l-7.945 42.331h14.395l8.443-45.684a23.338 23.338 0 016.6-3.496c2.398-.851 4.5-1.3 6.25-1.3 1.898 0 3.495.55 4.796 1.648 1.25 1.05 1.848 2.601 1.848 4.75 0 .598-.098 1.5-.3 2.75-.2 1.148-.349 2.2-.497 3.098l-3.603 16.89c-.25 1.302-.5 2.652-.75 4.051-.25 1.45-.348 2.7-.348 3.747 0 4.05 1.098 7.449 3.348 10.148 2.149 2.699 5.998 4.297 11.549 4.746l6.347-12.844c-2.153-.348-3.701-1.149-4.65-2.399-1-1.199-1.5-2.898-1.5-5.047 0-.5.052-1.1.15-1.75.05-.652.153-1.199.2-1.601l3.646-17.191c.301-1.45.551-2.899.75-4.348.203-1.398.3-2.8.3-4.148 0-4.95-1.448-8.946-4.347-11.895-2.949-2.95-7.045-4.45-12.295-4.45-3.047 0-5.946.5-8.793 1.5-2.8.95-6.201 2.547-10.15 4.899-.148-.95-.5-2.103-1-3.399a23.186 23.186 0 00-1.797-3.351zm79.312.351c-4.45 0-8.598 1-12.344 2.95-3.801 1.948-7.048 4.648-9.696 8.097-2.75 3.398-4.847 7.343-6.398 11.844-1.55 4.598-2.3 9.496-2.3 14.645 0 4.496.601 8.496 1.75 11.996 1.148 3.496 2.8 6.445 4.898 8.797 2.05 2.398 4.598 4.195 7.547 5.445s6.246 1.899 9.847 1.899c4.348 0 8.645-.798 12.945-2.399 4.347-1.598 8.145-4.098 11.395-7.445l-5.398-12.496c-2.5 2.801-5.25 4.899-8.297 6.348-3.051 1.449-6.098 2.148-9.098 2.148-3.496 0-6.246-1.098-8.246-3.297-1.949-2.25-2.949-5.05-2.949-8.348v-.949c0-.398.051-.8.152-1.199 2.65-.352 5.645-.8 8.996-1.398 3.348-.602 6.746-1.301 10.195-2.102 3.45-.848 6.798-1.797 10.094-2.797 3.25-1 6.15-2.05 8.598-3.101v-5.747c0-3.546-.551-6.746-1.648-9.597-1.15-2.747-2.649-5.149-4.598-7.196-1.949-2-4.301-3.5-6.949-4.5-2.598-1.047-5.446-1.597-8.496-1.597zm-338.79 7.29c-2.931-.112-5.558.775-7.92 2.655-2.75 2.098-4.297 4.899-4.746 8.348-.403 3.348.45 6.399 2.597 9.145 2.098 2.75 4.848 4.347 8.297 4.8 3.45.348 6.496-.5 9.246-2.601 2.7-2.149 4.247-4.945 4.7-8.297.449-3.45-.403-6.547-2.551-9.246-2.149-2.746-4.899-4.297-8.348-4.695a13.827 13.827 0 00-1.275-.11zm337.24 4.257c2.648 0 4.847.848 6.594 2.598 1.75 1.699 2.652 4.246 2.652 7.695-1.45.45-3.151 1-5.148 1.55-2.05.5-4.098 1-6.2 1.45-2.148.45-4.199.899-6.246 1.3-2.05.349-3.8.65-5.3.9.25-2.098.703-4.098 1.402-5.95.75-1.847 1.7-3.496 2.847-4.898 1.25-1.399 2.598-2.547 4.149-3.399 1.55-.847 3.3-1.246 5.25-1.246zm-249.98 9.902c-2.932-.074-5.565.812-7.97 2.692-2.75 2.148-4.297 4.898-4.7 8.297-.45 3.449.403 6.496 2.55 9.246 2.15 2.75 4.9 4.297 8.348 4.699 3.398.449 6.446-.402 9.196-2.55 2.75-2.149 4.297-4.9 4.746-8.349.403-3.398-.45-6.445-2.598-9.195-2.149-2.75-4.899-4.297-8.297-4.75-.431-.05-.856-.079-1.275-.09zM83.69 88.274c-1.102 4.45-2.801 8.597-5.149 12.348 1.551-.102 3.149-.05 4.797.149.051 0 .102 0 .153.05 1.847.2 3.597.551 5.297 1.098 5.148 1.652 9.496 4.75 13.043 9.297 3.55 4.5 5.448 9.445 5.8 14.895.097 1.75.047 3.5-.203 5.348v.199c-.95 7.45-4.399 13.496-10.344 18.145-6 4.648-12.746 6.547-20.293 5.597-7.547-.949-13.644-4.398-18.293-10.348-4.699-5.996-6.597-12.742-5.648-20.289.203-1.7.55-3.3 1.05-4.851-4.245 1.352-8.644 2-13.245 2-.047.449-.149.901-.2 1.351-1.347 10.945 1.352 20.742 8.2 29.488 6.796 8.695 15.69 13.742 26.637 15.094 10.945 1.347 20.742-1.397 29.488-8.197 8.047-6.297 12.945-14.345 14.695-24.189.149-.8.249-1.601.398-2.45.051-.851.152-1.646.2-2.446.3-4.65-.149-9.049-1.298-13.197-1.35-4.898-3.75-9.496-7.097-13.844-3.4-4.347-7.297-7.798-11.695-10.297-3.797-2.149-7.946-3.598-12.496-4.399-.797-.148-1.598-.3-2.45-.398l-1.347-.153zm-3.326 27.3c-2.931-.076-5.558.808-7.92 2.688-2.75 2.148-4.297 4.898-4.75 8.297-.45 3.45.453 6.5 2.601 9.246 2.098 2.75 4.848 4.302 8.297 4.7 3.45.449 6.496-.398 9.246-2.551 2.7-2.148 4.246-4.894 4.7-8.344.398-3.398-.454-6.449-2.551-9.199-2.149-2.746-4.899-4.297-8.348-4.746a14.34 14.34 0 00-1.275-.092zm316.05 16.733a9.945 9.945 0 00-4.047.846c-1.25.55-2.348 1.353-3.297 2.35a11.06 11.06 0 00-2.25 3.5 11.482 11.482 0 00-.852 4.396c0 1.25.2 2.35.602 3.4.348 1 .898 1.851 1.598 2.551.652.75 1.5 1.296 2.449 1.7.949.347 2 .546 3.148.546 1.403 0 2.75-.298 4-.85s2.348-1.351 3.297-2.347c.95-.953 1.7-2.152 2.25-3.5a11.73 11.73 0 00.852-4.45c0-1.25-.203-2.396-.602-3.396-.398-1-.95-1.85-1.598-2.6-.703-.698-1.499-1.248-2.449-1.599-.949-.348-2-.547-3.101-.547zm-98.96.004c-1.05 0-2.103.045-3.154.146-1.046.15-2.046.303-2.996.553l-3.148 17.844c.949.246 2.047.398 3.246.547 1.152.152 2.252.2 3.303.2 1.547 0 2.949-.25 4.297-.747 1.35-.55 2.548-1.251 3.548-2.201.997-.953 1.797-2.101 2.399-3.45.547-1.35.85-2.896.85-4.595 0-1.352-.202-2.5-.6-3.55-.45-1.052-1-1.901-1.75-2.6s-1.649-1.249-2.649-1.6a10.49 10.49 0 00-3.345-.547zm-88.206.002a9.973 9.973 0 00-4.053.846c-1.25.55-2.347 1.353-3.297 2.35a11.13 11.13 0 00-2.25 3.5 11.5 11.5 0 00-.85 4.396c0 1.25.202 2.35.6 3.4.352 1 .9 1.85 1.6 2.55.652.75 1.498 1.297 2.447 1.7a9.1 9.1 0 003.15.547c1.402 0 2.75-.297 4-.848s2.347-1.353 3.297-2.35c.953-.952 1.703-2.151 2.25-3.5.55-1.35.85-2.846.85-4.448 0-1.25-.198-2.397-.6-3.397-.399-1-.95-1.848-1.597-2.598-.7-.699-1.5-1.25-2.45-1.601-.95-.348-2-.547-3.097-.547zm-31.291.248l-3.348 18.742h3.7l1.245-7.15h6.75l.598-3.397h-6.746l.847-4.799h6.649l.601-3.396h-10.297zm53.72 0l-1.949 10.893c-.047.449-.097.9-.148 1.35s-.05.799-.05 1.15c0 1 .151 1.85.448 2.6.301.75.704 1.3 1.204 1.75a5.387 5.387 0 001.796 1c.7.199 1.399.296 2.149.296 1.85 0 3.5-.548 5-1.7 0 .25 0 .552.05.853 0 .25.001.5.047.75l3.649-.25c-.047-.25-.047-.502-.047-.803-.051-.25-.05-.55-.05-.896 0-.602.05-1.252.097-1.9.05-.7.1-1.352.25-1.95l2.3-13.143h-3.648l-2.398 13.691c-.5.551-1.102.998-1.852 1.4a5.699 5.699 0 01-2.449.547c-.898 0-1.598-.198-2.098-.597-.55-.45-.8-1.149-.8-2.2 0-.199.05-.498.101-.896.051-.352.05-.703.098-1l2-10.945h-3.7zm29.493 0l-3.35 18.742h3.6l2-11.297c.05-.148.05-.398.05-.648v-.852h.147l6.553 12.943 3.193-.299 3.25-18.59h-3.547l-1.9 11.043c-.047.152-.1.402-.1.75v.85h-.15l-6.397-12.643h-3.35zm63.527 0c-.801 1.347-1.651 2.898-2.6 4.547-.95 1.648-1.849 3.346-2.748 5.045-.902 1.7-1.7 3.349-2.45 4.951-.75 1.597-1.35 3-1.8 4.2h3.848c.152-.353.3-.802.5-1.25.199-.45.402-.951.652-1.401l.598-1.35c.199-.449.4-.848.552-1.199h6.496c.051.449.051.898.102 1.398l.148 1.448c.051.449.1.904.15 1.353.048.45.048.796.048 1.147l3.699-.3c0-.7-.049-1.501-.147-2.45-.05-.95-.2-1.95-.353-2.996-.148-1.051-.3-2.199-.5-3.352a40.63 40.63 0 00-.596-3.445 64.9 64.9 0 00-.654-3.35c-.25-1.047-.45-2.047-.7-2.996h-4.245zm46.027 0l-3.346 18.742h3.693l3.303-18.742h-3.65zm48.383 0l-3.346 18.742h3.596l2-11.297c.05-.148.05-.398.05-.648v-.852h.15l6.546 12.943 3.2-.299 3.25-18.59h-3.55l-1.9 11.043c-.05.152-.096.402-.096.75v.85h-.154l-6.393-12.643h-3.353zm-73.72.002l-.55 3.398h4.547l-2.65 15.344h3.65l2.699-15.344h4.55l.548-3.398h-12.793zm50.526 3.09c1.449 0 2.5.451 3.25 1.35.75.851 1.148 2.1 1.148 3.646 0 .95-.148 1.904-.45 2.853a6.749 6.749 0 01-1.198 2.397c-.551.7-1.2 1.25-1.95 1.699-.75.399-1.598.598-2.5.598-1.45 0-2.496-.45-3.246-1.297-.75-.902-1.152-2.1-1.152-3.647 0-.949.153-1.903.453-2.853.297-.898.7-1.698 1.2-2.397.545-.699 1.198-1.25 1.948-1.699s1.548-.65 2.497-.65zm-187.17.006c1.449 0 2.494.451 3.244 1.35.75.851 1.152 2.1 1.152 3.646a9.41 9.41 0 01-.453 2.853 6.749 6.749 0 01-1.2 2.397 6.962 6.962 0 01-1.947 1.699c-.75.399-1.598.598-2.496.598-1.449 0-2.5-.45-3.25-1.297-.75-.902-1.15-2.1-1.15-3.647 0-.949.15-1.903.451-2.853.3-.898.7-1.698 1.2-2.397.55-.699 1.198-1.25 1.948-1.699s1.551-.65 2.5-.65zm87.904.048c.75 0 1.45.098 2.1.25.651.15 1.197.451 1.646.85.5.398.902.898 1.152 1.55.25.598.398 1.347.398 2.296 0 1.2-.149 2.25-.5 3.2-.3.95-.75 1.751-1.347 2.4-.601.651-1.302 1.1-2.153 1.447-.848.352-1.745.5-2.796.5-.45 0-.897 0-1.448-.047-.55-.05-1.052-.1-1.4-.15l2.15-12.097c.301-.05.698-.099 1.147-.15.449-.047.8-.049 1.05-.049zm29.445.9h.199c.1.399.199.899.3 1.5.102.55.198 1.148.3 1.796.097.602.2 1.204.25 1.75.097.55.15.949.2 1.3h-4.65c.25-.448.5-.948.75-1.5.301-.55.6-1.147.9-1.75.352-.596.649-1.146.95-1.697s.55-1.047.8-1.398z" fill="#777"/></svg>